<svg width="174" height="44" viewBox="0 0 174 44" fill="none" xmlns="http://www.w3.org/2000/svg">
<path d="M29.583 10.1658L22.7944 14.7647V5.6457L29.5872 1L29.5872 1.02947L36.3765 5.58548V19.0209L29.583 14.4166V10.1658Z" fill="#133348"/>
<path d="M16 9.82251L22.7935 14.4269V32.836L29.5847 28.2353V37.3543L22.792 42L16 37.4399V9.82251Z" fill="#133348"/>
<path d="M29.583 28.1982L36.3765 32.8025V23.579L29.583 19.0202V28.1982Z" fill="#133348"/>
<path d="M68.615 33.4637H54.4988V12.6495H58.0501V30.2523H68.615V33.4637Z" fill="#133348"/>
<path d="M73.0838 32.8392C74.307 33.5529 75.7472 33.9097 77.4045 33.9097C78.9631 33.9097 80.3441 33.5727 81.5476 32.8987C82.7708 32.2247 83.7178 31.2534 84.3885 29.9847C85.0791 28.6962 85.4243 27.1798 85.4243 25.4353C85.4243 23.8693 85.0988 22.4718 84.4477 21.2428C83.8164 19.9939 82.8891 19.0127 81.6659 18.2991C80.4625 17.5854 79.042 17.2286 77.4045 17.2286C75.8656 17.2286 74.4846 17.5557 73.2614 18.2099C73.1512 18.2697 73.0431 18.3321 72.9371 18.397L75.9255 20.4514C76.3775 20.305 76.8705 20.2318 77.4045 20.2318C78.7658 20.2318 79.8509 20.7076 80.6598 21.6591C81.4687 22.6106 81.8731 23.8693 81.8731 25.4353C81.8731 27.041 81.4687 28.3592 80.6598 29.39C79.8706 30.401 78.7855 30.9065 77.4045 30.9065C76.0826 30.9065 74.9975 30.4208 74.1492 29.4495C73.3206 28.4583 72.9062 27.1203 72.9062 25.4353C72.9062 24.6235 73.0149 23.8943 73.2323 23.2477L70.297 21.2368C69.669 22.429 69.355 23.8285 69.355 25.4353C69.355 27.0608 69.6707 28.5178 70.302 29.8063C70.9531 31.0948 71.8803 32.1058 73.0838 32.8392Z" fill="#133348"/>
<path d="M86.9757 33.4637V21.213C86.9757 19.2753 88.5391 17.7044 90.4677 17.7044H96.2385V20.9454H90.4677V33.4637H86.9757Z" fill="#133348"/>
<path fill-rule="evenodd" clip-rule="evenodd" d="M99.9665 32.869C101.19 33.5628 102.59 33.9097 104.169 33.9097C106.004 33.9097 107.552 33.4339 108.815 32.4824C110.078 31.5111 110.906 30.173 111.301 28.4683H107.898C107.641 29.2612 107.187 29.8757 106.536 30.3118C105.885 30.7281 105.106 30.9362 104.198 30.9362C102.877 30.9362 101.801 30.5199 100.973 29.6874C100.164 28.835 99.7002 27.7051 99.5818 26.2976H111.36V25.4651C111.34 23.7801 111.015 22.3231 110.383 21.0941C109.752 19.8453 108.874 18.8937 107.75 18.2396C106.645 17.5656 105.353 17.2286 103.873 17.2286C102.413 17.2286 101.091 17.5755 99.9074 18.2693C98.7236 18.9433 97.7865 19.9245 97.096 21.213C96.4252 22.4817 96.0898 23.9585 96.0898 25.6435C96.0898 27.2293 96.4252 28.6566 97.096 29.9253C97.7865 31.1741 98.7433 32.1553 99.9665 32.869ZM106.388 21.1536C107.079 21.7879 107.533 22.6799 107.75 23.8297H99.7298C100.006 22.6998 100.509 21.8176 101.239 21.1833C101.969 20.5291 102.847 20.2021 103.873 20.2021C104.879 20.2021 105.718 20.5192 106.388 21.1536Z" fill="#133348"/>
<path d="M112.901 18.0044V33.4637H116.393V23.9189C116.413 22.8683 116.393 20.2913 116.393 20.2913H120.24C121.207 20.2913 121.967 20.5589 122.519 21.0941C123.072 21.6095 123.348 22.3132 123.348 23.2053V33.4637H126.84V23.0268C126.84 21.2626 126.337 19.8552 125.331 18.8045C124.324 17.7539 122.983 17.2286 121.306 17.2286C120.413 17.2286 117.508 17.2306 116.275 17.2315V20.3235L112.901 18.0044Z" fill="#133348"/>
<path d="M128.583 33.4637H141.013V30.3415H132.46L140.894 20.9157V17.7044H128.583V20.7968H136.988L128.583 30.2523V33.4637Z" fill="#133348"/>
<path fill-rule="evenodd" clip-rule="evenodd" d="M149.98 33.9097C148.323 33.9097 146.883 33.5529 145.659 32.8392C144.456 32.1058 143.529 31.0948 142.878 29.8063C142.246 28.5178 141.931 27.0608 141.931 25.4353C141.931 23.7504 142.276 22.2934 142.966 21.0644C143.677 19.8155 144.634 18.864 145.837 18.2099C147.06 17.5557 148.441 17.2286 149.98 17.2286C151.618 17.2286 153.038 17.5854 154.242 18.2991C155.465 19.0127 156.392 19.9939 157.023 21.2428C157.674 22.4718 158 23.8693 158 25.4353C158 27.1798 157.655 28.6962 156.964 29.9847C156.293 31.2534 155.346 32.2247 154.123 32.8987C152.92 33.5727 151.539 33.9097 149.98 33.9097ZM149.98 30.9065C151.361 30.9065 152.446 30.401 153.235 29.39C154.044 28.3592 154.449 27.041 154.449 25.4353C154.449 23.8693 154.044 22.6106 153.235 21.6591C152.427 20.7076 151.341 20.2318 149.98 20.2318C148.619 20.2318 147.524 20.7076 146.695 21.6591C145.886 22.6106 145.482 23.8693 145.482 25.4353C145.482 27.1203 145.896 28.4583 146.725 29.4495C147.573 30.4208 148.658 30.9065 149.98 30.9065Z" fill="#133348"/>
</svg>
